<svg class="icon" viewBox="0 0 1024 1024" xmlns="http://www.w3.org/2000/svg" width="200" height="200"><path d="M512 0C229 0 0 235 0 525c0 232 147 428 350 498 26 5 35-12 35-25l-1-90c-142 32-172-70-172-70-23-61-57-77-57-77-46-32 4-32 4-32 51 4 78 54 78 54 46 81 120 57 149 44 5-34 18-57 33-70-114-13-234-58-234-260 0-57 20-104 53-140-5-14-23-67 5-139 0 0 43-14 141 53 41-11 84-17 128-17s87 6 128 17c98-67 141-53 141-53 28 72 10 125 5 139 33 36 52 83 52 140 0 202-119 246-233 259 18 17 35 49 35 98l-1 144c0 14 9 30 35 25 203-70 350-266 350-498C1024 235 795 0 512 0" fill="#3E75C3"/></svg>