<svg class="icon" viewBox="0 0 1024 1024" xmlns="http://www.w3.org/2000/svg" width="200" height="200"><path d="M931 598c-18-50-90-162-91-218h-1l1-9C840 166 693 0 512 0 331 1 184 166 184 371l1 10h-1c-1 56-72 168-91 217-19 50-24 100-15 140 8 39 16 63 24 71s16 16 40-1c20-17 42-50 42-50s18 52 57 92c-31 14-76 47-79 69s47 103 166 105c120 1 159-50 163-54 11-12 20-19 20-19s10 7 21 19c4 4 43 56 163 54 119-2 169-83 166-105-3-21-48-55-79-69 39-40 57-92 57-92s22 33 42 50c24 17 32 9 40 1s16-32 24-71c10-40 5-90-14-140z" fill="#369BCE"/></svg>