<svg xmlns="http://www.w3.org/2000/svg" width="1046.25" height="174.844" viewBox="0 0 1046 175"><path d="M42 23h4l7 7v3q-8 0-14 21Q12 79-6 82h-1l28-22q14-14 23-30v-1l-3-5 1-1zm66 8l7-8h6q-13 42-13 66l2 27q-5 21-9 21l-1-2 1-1V98q0-25 12-67h-2l-1 2h-2v-2zm-49 2l4-4 6 4q0 2-10 8l-1-1v-2l2-2-1-2v-1zM48 44h4l4 4-4 6h3l11-4 3 4-11 13 1 1v1q0 8-4 13l10-1h3v1l-6 6h-9l-4-5 2-14-2-1q6-3 10-13h-1q-6 6-10 6l-2-1v-2l2-1h1l-3-12 2-1zm45 17v3l-9 12h-1l-6-5v-2h5l1 2h1q6-10 9-10zm-55 1h3l5 6v7q0 10-36 66H7l-3-3q4-1 26-40 9-19 9-23v-7l-2-4 1-2zm37 31l2 5-7 14q5 0 7 5-10 14-15 14l-2-1 6-9v-2q-4 0-4-3l6-16h-2q-5 1-15 14l1 7v2l-3 3h-3q-7-6-11-14l2-2h2l6 2q4 0 4-6 17-13 26-13zM163 22l2-3h9q4 2 4 9v1q0 3-7 3l-4 4-3-3v-1l1-2-2-8zm2 16q13 1 13 5v3q0 4-7 4v2q6 0 6 8v1q-6 9-13 9l3 4-3 13q25-18 25-23 0-8 5-8l7 3q10-13 22-13l3 4v6q-1 3-20 8 0 2-5 4l-5 16 24-16h6l3 3v3q-5 6-20 13v22q0 11 4 26l-1 1v1l3 9-2 1h-10q-5 0-5-22l3-14-2-2v-1l3-16q-10 4-10 10-11 31-18 37h-4l-3-3v-1q0-11 4-12l2 2h1q8-22 11-37v-8q-27 14-27 39-4 0-4 18v7l-3 3h-2l-2-1h-1l3-17v-10h-2q-8 13-15 13h-3l-3-3v-4l27-28h-2q-16 11-25 11l-1-4q0-6 31-23l4-4v-2l-9 6-2-3v-1l15-17-3-3q0-19 4-19z"/><path d="M275 23h4l7 7v3q-8 0-14 21-28 25-45 28h-2l29-22q13-14 22-30v-1l-3-5 2-1zm66 8l7-8h5q-12 42-12 66l1 27q-4 21-8 21l-2-2 2-1V98q0-25 11-67h-1l-2 2h-1v-2zm-49 2l4-4 5 4q0 2-9 8l-2-1v-2l3-2-1-2v-1zm-12 11h5l4 4-4 6h2l12-4 2 4-11 13 2 1v1q0 8-5 13l10-1h3v1l-6 6h-8l-4-5 1-14-1-1q6-3 10-13h-2q-6 6-10 6l-1-1v-2l1-1h2l-3-12 1-1zm45 17v3l-8 12h-2l-5-5v-2h4l1 2h2q6-10 8-10zm-55 1h3l6 6v7q0 10-37 66h-2l-3-3q4-1 25-40 10-19 10-23v-7l-3-4 1-2zm37 31l3 5-7 14q4 0 7 5-10 14-16 14l-1-1 6-9v-2q-5 0-5-3l6-16h-1q-5 1-16 14l2 7v2l-3 3h-3q-7-6-11-14l1-2h3l5 2q5 0 5-6 16-13 25-13zM435 20h2q4 0 6 16h1q6-7 11-7 7 1 7 4-46 26-59 29l7-5-1-2v-1l1-4h-4q0 6-11 8h-5l-2-3v-1q14 0 25-14l1-10q4 0 7 11 14-2 14-21zm36 20h2l5 4-28 9-2-2h-1l-71 35-14 4-1-1v-1q43-25 110-48zm-52 10v1h1l6-6h-2q-5 2-5 5zm26 4l-5 6h-2v-2q0-3 7-4zm-43 28l25-8h7v2q0 3-13 7v2l9 3v2l-18 16h2l5-3 1 2 14-10 1 1v2l-15 14 1 4h-1l3 8v9l-7 5h-4l-5-4q5 0 9-20h-2l-8 3h-1l-3-3v-4q10-14 14-14v-3l-2 2h-2l-3-3v-3l4-6-7 2h-1l-3-3zm35 35q6 2 8 7v3q-3 7-11 7h-1l-3-3q2 0 7-14zm-38 16l7-6 1 1v2l-11 11h-3l-4-4q0-3 10-4zM504 26h1l5 17h-2l3 11 4-2-5-17h1l17 12q-9 20-9 26 19-11 19-35 4-10 7-10l2 2 1 17h1l15-12-1-7h4l10-2 1 2v2l-30 27v21h1q0-5 8-5 6 2 6 4l-11 25h1l4-1q6 5 6 17 0 20-16 28h-1l-1-2v-1h1l-6-10v-3q0-11 13-11l2 7h1v-14l-3-3h-1q-14 11-21 33h-3q-3 0-3-5 17-26 25-47h-1l-13 8q-5 0-7-11l3-16h-1l-27 37-3 31 1 4-4 3h-1q-7-6-17-7-1 7-4 7h-2q-4-2-4-9v-5q27-28 27-33l1-9q-11-4-12-9v-3q0-6 16-19h1l1-16-2-15 2-2zm-14 103l5 6h2v-19q-7 6-7 13zM679 19h2l1 6q-11 13-35 25l-3-3 1-1v-1q-6 0-9-12l1-1 10 1 9-1 2 1v1q17-15 21-15zm2 15h4l3 3q-6 7-28 18v1q6 0 6 3v1l-7 26v3l31-12h3l3 3-22 11v1h2l10-1 3 4q0 4-19 9h-2v-2q0-3 5-3l-3-5-6 5 2 1v2l-5 20 3 18q-3 8-5 8h-1l-15-14 2-3 8 1 2-9-2-3 3-21q-7 1-13 9l-7 1v2l7 1 8-3 1 2v1q0 2-4 2l1 9-4 4q-3 0-8-7-9 2-32 23h-2q-3 0-4-15 7-2 35-25l-4-18v-3h2l6 5q0-14 14-29h-1l-22 19q-6-2-11-9 5-6 34-15l4 1q4-6 25-20zm-26 39l-3-3-1 5 1 2h1l2-2v-2zm-2 18l-5-1q-1 5-5 5v2h2q8-4 8-6zm-38 32h2l17-7v-4h-4q-12 7-15 11zM731 56l41-33q7 2 7 5l-37 27h2q25-6 25-17l4-1 2 7h1l4-3h9l3 3q0 2-12 2-11 14-11 22h3l4-3h6l6 5-2 2h-1l4 7-9 3-4-2-14 24v1l4 2 20-7 2-2h2l6 10q0 3-4 3-4 11-7 11l-2-1h-1l6-10v-3l-19 10q3 10 24 11 3 0 3-14l1-1h2q4 0 4 14-7 7-21 7h-2q-8 0-19-10l-33 14v-1q-16 1-19 5h-2l-2-2 1-2-1-1h-2q0-15 51-30l5-29-1-2h-1l-19 9h-3l-2-3v-3q16-17 24-17l4 2v-5l1-1-1-1q-17 8-23 8h-3q-3 0-4-10zm27 12l-6 2 2 2v1q5-2 5-4v-1h-1zm-41 66v1l7 1q13-3 24-11 3 0 6-5v-2q-25 6-37 16zM894 18h5l2 3v3l-11 15v2h2l8-2 6 3q-6 10-23 16v-2q0-3-4-7v-5q0-5 4-10l-1-2h-6l-7 5-1-2v-1q16-12 26-16zm-43 33l1-6h2l8 8v7l-3 3h-5l-3-3v-1l1-6-1-1v-1zm56 4l6 4q-18 24-31 49l-2-1v-2q0-6 20-42h-4q-29 19-34 19h-6v-2q3-5 51-25zm-37 39h5l3 3q0 3-12 4v-1l4-6zm-19 20l3-16h2q1 10 5 10l1-1h1q13 5 13 8v3q-24 28-35 28h-3v-4q21-15 28-27l-1-1h-2l-11 1-1-1zm21 15v-1q20 3 20 8l-3 3q-17-6-17-10zM962 59l46-29h12l4 4q-3 4-40 17-30 21-36 21l-2-2v-7q0-4 23-22v4l-10 14h3zm29 13q6 2 6 4l-7 7h-6q0-3-7-3l-1-1v-2q0-2 15-5zm-15 29l21-10h1l5 5v1l-23 28h4q30-14 40-14 5 3 7 9 0 13-20 21h-7v-2q18-15 18-22v-2h-4q-6 0-48 24l-4-4v-4l21-26v-1h-3l-7 1-1-1v-3z"/></svg>