<svg class="icon" viewBox="0 0 1024 1024" xmlns="http://www.w3.org/2000/svg" width="200" height="200"><path d="M687 333l32 2C690 200 546 99 381 99 197 99 46 225 46 385c0 92 50 167 134 226l-34 101 117-59c42 8 76 17 118 17l31-1a250 250 0 0 1-10-71c0-146 126-265 285-265zm-180-91c25 0 42 17 42 42s-17 42-42 42-51-17-51-42 26-42 51-42zm-235 84c-25 0-50-17-50-42s25-42 50-42 42 17 42 42-17 42-42 42z" fill="#1afa29"/><path d="M993 594c0-134-134-243-285-243-159 0-285 109-285 243s126 244 285 244c34 0 67-9 101-17l92 50-25-84c67-50 117-117 117-193zm-377-42c-17 0-34-16-34-33s17-34 34-34c25 0 42 17 42 34s-17 33-42 33zm184 0c-17 0-33-16-33-33s16-34 33-34c25 0 42 17 42 34s-17 33-42 33z" fill="#1afa29"/></svg>