<svg class="icon" viewBox="0 0 1024 1024" xmlns="http://www.w3.org/2000/svg" width="200" height="200"><path d="M184 0h656q184 0 184 184v656q0 184-184 184H184Q0 1024 0 840V184Q0 0 184 0z" fill="#111"/><path d="M204 671a246 246 0 0 1 246-246v147a98 98 0 0 0-98 99c0 48 26 100 83 100 4 0 94-1 94-77V134h157a133 133 0 0 0 133 133v148a273 273 0 0 1-142-39v318c0 146-125 225-242 225-131 0-231-107-231-248z" fill="#FF4040"/><path d="M165 631a246 246 0 0 1 246-246v148a98 98 0 0 0-98 98c0 49 26 101 83 101 4 0 94-1 94-78V95h157a133 133 0 0 0 133 133v147a273 273 0 0 1-143-39v318c0 146-124 225-241 225-132 0-231-106-231-248z" fill="#00F5FF"/><path d="M411 428c-159 20-285 222-154 405 120 98 373 41 381-172l-1-324a281 281 0 0 0 143 38V261a145 145 0 0 1-73-55 135 135 0 0 1-54-72H529v561c0 79-131 107-164 31-83-40-65-191 46-193z" fill="#FFF"/></svg>